<svg xmlns="http://www.w3.org/2000/svg" viewBox="0 0 263.34 107.82"><g id="Layer_2" data-name="Layer 2"><g id="Layer_1-2" data-name="Layer 1"><path d="M91.17,0H14A14.06,14.06,0,0,0,0,14V93.8a14.06,14.06,0,0,0,14,14H91.17a14.06,14.06,0,0,0,14-14V14A14.06,14.06,0,0,0,91.17,0ZM34.94,91.73c-5.74,3.77-15-6.15-9-10.27,15.7-10.84,41.1-27,45.46-47.32,1.75-8.17-2.27-16.2-13.74-2.39C56.28,37.52,52.28,46.18,48.16,46a4.55,4.55,0,0,1-4.61-4.2C42.91,36.62,50.47,33,47.6,27.4,45,22.3,38.86,31,37.32,33.18A56.77,56.77,0,0,0,29.53,49c-.2.65-.39,1.3-.57,2,.7,2.18,2.69,3.49,3,6a5.89,5.89,0,0,1-2,5.62c-3,2.46-6.66.07-7.44-3.43s.31-7.69,1-11a61.57,61.57,0,0,1,3.24-10.3c2.62-6.37,7.07-13.94,12.93-17.56,5.57-3.45,12.06-1.63,15.54,3.48,3.17-3.1,6.83-6.24,10.9-7.71a11.79,11.79,0,0,1,12.68,2.65c2.89,3.07,4,7.47,4,11.68C83,55,54.88,78.62,34.94,91.73Z"/><path d="M150.7,14v5.9h-8.43V45.26H136.1V19.91h-8.39V14Z"/><path d="M154.14,14h6.16V45.26h-6.16Z"/><path d="M186.19,45.26l-1.87-5.62H171.86L170,45.26h-6.65L174.27,14h7.64l11,31.25ZM173.83,33.88h8.57l-4.29-12.77Z"/><path d="M226.51,14V45.26h-6.12V25L211.6,39.5h-.72L202.09,25V45.26h-6.16V14h6.34l9,14.78L220.17,14Z"/><path d="M247.09,45.89a16,16,0,0,1-16.21-16.25,16.26,16.26,0,0,1,27.73-11.52,15.52,15.52,0,0,1,4.73,11.52,16.08,16.08,0,0,1-16.25,16.25Zm0-6A9.76,9.76,0,0,0,254.28,37a10,10,0,0,0,2.9-7.36,10,10,0,0,0-2.9-7.37,10.36,10.36,0,0,0-14.38,0,10,10,0,0,0-2.9,7.37A10,10,0,0,0,239.9,37,9.76,9.76,0,0,0,247.09,39.86Z"/><path d="M147.32,61.48h-16.2V74.34h15.45v3.29H131.12V93.07h-3.48V58.2h19.68Z"/><path d="M169.34,93.67a17.86,17.86,0,0,1-18-18,18,18,0,1,1,36.07,0,17.86,17.86,0,0,1-18,18Zm0-3.39A13.91,13.91,0,0,0,179.7,86a15,15,0,0,0,0-20.77,14.69,14.69,0,0,0-20.73,0A15,15,0,0,0,159,86,13.91,13.91,0,0,0,169.34,90.28Z"/><path d="M209.39,93.67a17.86,17.86,0,0,1-18-18,18,18,0,1,1,36.07,0,17.88,17.88,0,0,1-18,18Zm0-3.39A13.89,13.89,0,0,0,219.75,86a15,15,0,0,0,0-20.77,14.68,14.68,0,0,0-20.72,0A15,15,0,0,0,199,86,13.91,13.91,0,0,0,209.39,90.28Z"/><path d="M246.86,58.2a15.22,15.22,0,0,1,11.75,5.08,17.35,17.35,0,0,1,4.69,12.35A17.58,17.58,0,0,1,258.61,88a15.35,15.35,0,0,1-11.75,5H233.4V58.2Zm0,31.58a11.9,11.9,0,0,0,9.36-4.08,15.57,15.57,0,0,0,0-20.13,11.91,11.91,0,0,0-9.36-4.09h-10v28.3Z"/></g></g></svg>